<mxfile host="app.diagrams.net" agent="Mozilla/5.0 (Windows NT 10.0; Win64; x64) AppleWebKit/537.36 (KHTML, like Gecko) Chrome/131.0.0.0 Safari/537.36" version="25.0.1">
  <diagram name="หน้า-1" id="nNVXw0SvgmY4W9bGbGdz">
    <mxGraphModel dx="1050" dy="530" grid="1" gridSize="10" guides="1" tooltips="1" connect="1" arrows="1" fold="1" page="1" pageScale="1" pageWidth="827" pageHeight="1169" math="0" shadow="0">
      <root>
        <mxCell id="0" />
        <mxCell id="1" parent="0" />
        <mxCell id="IgO1s9X8KMhjiMLvDDLH-3" value="" style="edgeStyle=orthogonalEdgeStyle;rounded=0;orthogonalLoop=1;jettySize=auto;html=1;" edge="1" parent="1" source="IgO1s9X8KMhjiMLvDDLH-1" target="IgO1s9X8KMhjiMLvDDLH-2">
          <mxGeometry relative="1" as="geometry" />
        </mxCell>
        <mxCell id="IgO1s9X8KMhjiMLvDDLH-1" value="Start" style="ellipse;whiteSpace=wrap;html=1;" vertex="1" parent="1">
          <mxGeometry x="354" y="10" width="120" height="80" as="geometry" />
        </mxCell>
        <mxCell id="IgO1s9X8KMhjiMLvDDLH-5" value="" style="edgeStyle=orthogonalEdgeStyle;rounded=0;orthogonalLoop=1;jettySize=auto;html=1;" edge="1" parent="1" source="IgO1s9X8KMhjiMLvDDLH-2" target="IgO1s9X8KMhjiMLvDDLH-4">
          <mxGeometry relative="1" as="geometry" />
        </mxCell>
        <mxCell id="IgO1s9X8KMhjiMLvDDLH-2" value="Input Arraysize" style="shape=parallelogram;perimeter=parallelogramPerimeter;whiteSpace=wrap;html=1;fixedSize=1;" vertex="1" parent="1">
          <mxGeometry x="354" y="180" width="120" height="60" as="geometry" />
        </mxCell>
        <mxCell id="IgO1s9X8KMhjiMLvDDLH-9" value="" style="edgeStyle=orthogonalEdgeStyle;rounded=0;orthogonalLoop=1;jettySize=auto;html=1;" edge="1" parent="1" source="IgO1s9X8KMhjiMLvDDLH-4" target="IgO1s9X8KMhjiMLvDDLH-8">
          <mxGeometry relative="1" as="geometry" />
        </mxCell>
        <mxCell id="IgO1s9X8KMhjiMLvDDLH-4" value="Input n" style="shape=parallelogram;perimeter=parallelogramPerimeter;whiteSpace=wrap;html=1;fixedSize=1;" vertex="1" parent="1">
          <mxGeometry x="354" y="320" width="120" height="60" as="geometry" />
        </mxCell>
        <mxCell id="IgO1s9X8KMhjiMLvDDLH-11" value="" style="edgeStyle=orthogonalEdgeStyle;rounded=0;orthogonalLoop=1;jettySize=auto;html=1;" edge="1" parent="1" source="IgO1s9X8KMhjiMLvDDLH-8" target="IgO1s9X8KMhjiMLvDDLH-10">
          <mxGeometry relative="1" as="geometry" />
        </mxCell>
        <mxCell id="IgO1s9X8KMhjiMLvDDLH-8" value="Find array 3rd number" style="whiteSpace=wrap;html=1;" vertex="1" parent="1">
          <mxGeometry x="354" y="460" width="120" height="60" as="geometry" />
        </mxCell>
        <mxCell id="IgO1s9X8KMhjiMLvDDLH-13" value="" style="edgeStyle=orthogonalEdgeStyle;rounded=0;orthogonalLoop=1;jettySize=auto;html=1;" edge="1" parent="1" source="IgO1s9X8KMhjiMLvDDLH-10" target="IgO1s9X8KMhjiMLvDDLH-12">
          <mxGeometry relative="1" as="geometry" />
        </mxCell>
        <mxCell id="IgO1s9X8KMhjiMLvDDLH-10" value="Output array" style="shape=parallelogram;perimeter=parallelogramPerimeter;whiteSpace=wrap;html=1;fixedSize=1;" vertex="1" parent="1">
          <mxGeometry x="354" y="600" width="120" height="60" as="geometry" />
        </mxCell>
        <mxCell id="IgO1s9X8KMhjiMLvDDLH-15" value="" style="edgeStyle=orthogonalEdgeStyle;rounded=0;orthogonalLoop=1;jettySize=auto;html=1;" edge="1" parent="1" source="IgO1s9X8KMhjiMLvDDLH-12" target="IgO1s9X8KMhjiMLvDDLH-14">
          <mxGeometry relative="1" as="geometry" />
        </mxCell>
        <mxCell id="IgO1s9X8KMhjiMLvDDLH-12" value="Output 3rd number" style="shape=parallelogram;perimeter=parallelogramPerimeter;whiteSpace=wrap;html=1;fixedSize=1;" vertex="1" parent="1">
          <mxGeometry x="354" y="740" width="120" height="60" as="geometry" />
        </mxCell>
        <mxCell id="IgO1s9X8KMhjiMLvDDLH-14" value="End" style="ellipse;whiteSpace=wrap;html=1;" vertex="1" parent="1">
          <mxGeometry x="354" y="880" width="120" height="80" as="geometry" />
        </mxCell>
      </root>
    </mxGraphModel>
  </diagram>
</mxfile>
